<svg xmlns="http://www.w3.org/2000/svg" viewBox="0 0 500 500"><g id="freepik--Floor--inject-34"><g id="freepik--floor--inject-34"><ellipse cx="250" cy="341.65" rx="219.34" ry="126.64" style="fill:#ebebeb"></ellipse><path d="M94.9,252.11C56,274.57,34.77,303.36,31.2,332.74L265.44,468c50.88-2.06,100.76-14.32,139.66-36.78C450,405.29,471.32,371,469.18,337L258,215.11C199.25,213.87,139.77,226.2,94.9,252.11Z" style="fill:#f5f5f5"></path></g></g><g id="freepik--Shadows--inject-34"><path id="freepik--Shadow--inject-34" d="M116.94,399.81,362.77,258.08c9.57-5.51,10.92-13.69,3-18.25s-22.07-3.79-31.64,1.73L88.5,383.38c-9.57,5.52-11,13.68-3.1,18.21S107.37,405.33,116.94,399.81Z" style="opacity:0.02"></path><path id="freepik--shadow--inject-34" d="M317.29,411.85c-.4-4.54-4.25-7.93-8-10.54-25.14-17.53-71.92-25.69-80.2-26.56s-21.46-.86-28.39,1.8a15.41,15.41,0,0,0-6.79,6.07c-2.13,4-2,9.5,1.22,12.64,6,5.79,16.66,8.24,24.78,10.15s16.46,2.85,24.45,5.22c10.88,3.23,20.81,9,31.5,12.83s23,5.39,33.09.24C313.53,421.37,317.73,417,317.29,411.85Z" style="fill:#ebebeb"></path></g><g id="freepik--Clouds--inject-34"><g id="freepik--clouds--inject-34"><path d="M102.06,37.89l-9.3,5.37c0-.42.08-.83.08-1.23v-2.7c0-4.79-3.37-6.73-7.52-4.34a14.53,14.53,0,0,0-4.48,4.31c-.68-6-5.41-8.27-11.16-5-6.21,3.59-11.24,12.31-11.24,19.48v4a10.57,10.57,0,0,0,1,4.67L51.67,67a9.21,9.21,0,0,0-4.17,7.23c0,2.65,1.86,3.73,4.17,2.4l50.39-29.09a9.22,9.22,0,0,0,4.17-7.22C106.23,37.64,104.36,36.56,102.06,37.89Z" style="fill:#ebebeb"></path><path d="M158.77,57.43l-7,4a7.26,7.26,0,0,0,.06-.93v-2c0-3.62-2.54-5.09-5.67-3.28a11.08,11.08,0,0,0-3.38,3.25c-.51-4.54-4.08-6.24-8.42-3.74-4.69,2.71-8.49,9.29-8.49,14.71v3a8,8,0,0,0,.72,3.52l-5.83,3.37a6.94,6.94,0,0,0-3.15,5.45c0,2,1.41,2.82,3.15,1.81l38-22a7,7,0,0,0,3.15-5.45C161.92,57.24,160.51,56.43,158.77,57.43Z" style="fill:#ebebeb"></path></g></g><g id="freepik--Plant--inject-34"><g id="freepik--Plants--inject-34"><path d="M95.42,369.46S98.58,354,94.94,340,83.45,315.45,74.18,311.6,54.37,314,62.59,323.32,86.9,344.68,87.9,369.87Z" style="fill:#FBBF24"></path><path d="M95.42,369.46S98.58,354,94.94,340,83.45,315.45,74.18,311.6,54.37,314,62.59,323.32,86.9,344.68,87.9,369.87Z" style="opacity:0.15"></path><path d="M93.89,364.68H94a.53.53,0,0,0,.5-.57c-2-28-17.73-44.55-25.79-49.39a.53.53,0,0,0-.73.18.53.53,0,0,0,.18.73c7.89,4.75,23.32,21,25.27,48.56A.54.54,0,0,0,93.89,364.68Z" style="fill:#fff"></path><path d="M49.26,345c-1,3.12,1.19,5.29,3.29,7.05,1.61,1.34,3.38,2.81,3.82,4.87.89,4.16-4,8-3,12.12a6.59,6.59,0,0,0,3.48,3.87A42,42,0,0,0,61,374.6a16.93,16.93,0,0,0,2,.49,9.6,9.6,0,0,1,5.59,2.5c2.27,2.47,2,6.26,2.8,9.52l0,.11A10,10,0,0,0,87,392.71l11.49-8.18c4.55-6.13,3.4-17.11-3.9-20.69-1.55-.76-3.32-1.21-4.55-2.42-1.5-1.46-1.87-3.71-2-5.8s0-4.27-.85-6.18c-1.19-2.67-4-4.29-6.9-4.79-3.36-.58-6.72.79-9.91-.37s-6.14-3-9.44-3.87c-3.63-.9-7.79-.42-10.49,2.51A5.43,5.43,0,0,0,49.26,345Z" style="fill:#FBBF24"></path><path d="M82.92,363.33a.4.4,0,0,0-.15-.19C74.23,351,60.83,345.29,56.31,344.28a.47.47,0,0,0-.57.36.46.46,0,0,0,.36.56c4.29,1,16.73,6.27,25.1,17.38a26.13,26.13,0,0,0-20.84,1.81.48.48,0,0,0-.14.66.5.5,0,0,0,.38.22.53.53,0,0,0,.27-.08,25.25,25.25,0,0,1,21.3-1.29,39.71,39.71,0,0,1,7.12,24.43.46.46,0,0,0,.42.48h0a.47.47,0,0,0,.49-.46A40.56,40.56,0,0,0,82.92,363.33Z" style="fill:#fff"></path></g></g><g id="freepik--finish-line--inject-34"><g id="freepik--Arch--inject-34"><g id="freepik--arch--inject-34"><path id="freepik--arch--inject-34" d="M368.41,246.15V66.87a16,16,0,0,0-8-13.85L319.79,29.57a16,16,0,0,0-16,0l-170.6,98.5a16,16,0,0,0-5.86,5.85L86.71,204.28a16,16,0,0,0-2.14,8V391.55c0,2.37,1.56,4.73,4.68,6.53,6.25,3.61,16.38,3.61,22.63,0,3.13-1.8,4.69-4.16,4.69-6.53h0v-175l36.33-62.93L311.79,61.9l24.62,14.21v170h0c0,2.37,1.56,4.74,4.69,6.54,6.25,3.61,16.38,3.61,22.63,0,3.13-1.81,4.69-4.17,4.68-6.54Z" style="fill:#455a64"></path><path d="M116.57,216.57s-5.1-7-20.36-8.45c0,0,10.86-3,22.8,4.22Z" style="fill:#37474f"></path><path d="M152.9,153.64s1.28-8.4-7.9-15.54c0,0,8.44,2.55,11.29,13.58Z" style="fill:#37474f"></path><path d="M311.79,61.9c3-3.06,5.47-10.91,4.85-17.95,0,0,3.55,7.4-1.66,19.79Z" style="fill:#37474f"></path><path d="M336.41,76.11c8.2.33,16.28-2.74,20.08-8.24,0,0-3.22,11.09-20.08,12.2Z" style="fill:#37474f"></path></g><g id="freepik--Finish--inject-34"><path id="freepik--shadow--inject-34" d="M275.79,82.68V55.84c0-1.38-1-1.94-2.16-1.25L172.34,113.06a4.8,4.8,0,0,0-2.16,3.75v26.85Z" style="fill:#37474f"></path><path d="M277.8,49.75a1.52,1.52,0,0,0-1.54.15L175,108.37a4.78,4.78,0,0,0-2.17,3.75v37.22a1.51,1.51,0,0,0,.64,1.4l4.06,2.34a1.5,1.5,0,0,0,1.53-.15L280.32,94.45a4.78,4.78,0,0,0,2.17-3.75V53.49a1.52,1.52,0,0,0-.65-1.41Z" style="fill:#FBBF24"></path><path d="M179,110.72,280.32,52.24c1.2-.69,2.17-.13,2.17,1.25V90.7a4.78,4.78,0,0,1-2.17,3.75L179,152.93c-1.2.69-2.17.13-2.17-1.25V114.47A4.78,4.78,0,0,1,179,110.72Z" style="fill:#FBBF24"></path><path d="M176.87,151.68a1.63,1.63,0,0,0,.51,1.32l-3.94-2.27a1.51,1.51,0,0,1-.63-1.4V112.12a4.34,4.34,0,0,1,.64-2.13l4.06,2.34a4.37,4.37,0,0,0-.64,2.14Z" style="opacity:0.15"></path><path d="M277.8,49.75,281.73,52a1.64,1.64,0,0,0-1.41.22L179,110.72a4.4,4.4,0,0,0-1.53,1.61L173.45,110a4.43,4.43,0,0,1,1.53-1.62L276.26,49.89A1.54,1.54,0,0,1,277.8,49.75Z" style="fill:#fff;opacity:0.4"></path><path d="M205.07,105.37a.3.3,0,0,1,.41,0,.75.75,0,0,1,.17.53v3.51a1.77,1.77,0,0,1-.17.73,1.12,1.12,0,0,1-.41.5l-6.43,3.71v4.53l6-3.46a.32.32,0,0,1,.41,0,.72.72,0,0,1,.17.53v3.5a1.73,1.73,0,0,1-.17.73,1.12,1.12,0,0,1-.41.5l-6,3.46v7.15a1.58,1.58,0,0,1-.17.72,1.09,1.09,0,0,1-.41.51l-2.81,1.62a.32.32,0,0,1-.41,0,.73.73,0,0,1-.17-.53V112.26a1.8,1.8,0,0,1,.17-.73,1.18,1.18,0,0,1,.41-.5Z" style="fill:#fafafa"></path><path d="M208.51,126.54a.31.31,0,0,1-.41,0,.69.69,0,0,1-.17-.53V104.61a1.62,1.62,0,0,1,.17-.73,1.06,1.06,0,0,1,.41-.5l2.81-1.62a.32.32,0,0,1,.41,0,.75.75,0,0,1,.17.53v21.37a1.73,1.73,0,0,1-.17.73,1.12,1.12,0,0,1-.41.5Z" style="fill:#fafafa"></path><path d="M224.69,117.2a.53.53,0,0,1-.6,0,1,1,0,0,1-.29-.3l-4.92-8.47v11.18a1.62,1.62,0,0,1-.17.73,1.06,1.06,0,0,1-.41.5l-2.81,1.62a.3.3,0,0,1-.41,0,.73.73,0,0,1-.17-.53V100.58a1.77,1.77,0,0,1,.17-.73,1.06,1.06,0,0,1,.41-.5l2.23-1.29c.25-.14.44-.16.59,0a1,1,0,0,1,.29.29l4.92,8.47V95.6a1.6,1.6,0,0,1,.18-.72,1.05,1.05,0,0,1,.4-.5l2.82-1.63a.32.32,0,0,1,.41,0,.73.73,0,0,1,.17.53v21.37a1.8,1.8,0,0,1-.17.73,1.18,1.18,0,0,1-.41.5Z" style="fill:#fafafa"></path><path d="M231.09,113.5a.31.31,0,0,1-.41,0,.69.69,0,0,1-.17-.53V91.57a1.65,1.65,0,0,1,.17-.73,1.06,1.06,0,0,1,.41-.5l2.81-1.62a.32.32,0,0,1,.41,0,.72.72,0,0,1,.17.53v21.37a1.72,1.72,0,0,1-.17.72,1.06,1.06,0,0,1-.41.5Z" style="fill:#fafafa"></path><path d="M243.08,83.09a5.51,5.51,0,0,1,2.52-.84,3.55,3.55,0,0,1,2,.42A3.37,3.37,0,0,1,248.9,84a4.22,4.22,0,0,1,.49,1.93,1.25,1.25,0,0,1-.14.59.83.83,0,0,1-.31.4l-2.81,1.62a.79.79,0,0,1-.49.15.84.84,0,0,1-.37-.18c-.05,0-.11-.11-.21-.21a.94.94,0,0,0-.39-.25A1.34,1.34,0,0,0,244,88a2.61,2.61,0,0,0-.94.36,6.12,6.12,0,0,0-.79.54,4.52,4.52,0,0,0-.66.65,2.83,2.83,0,0,0-.48.78,2.46,2.46,0,0,0-.18.94,1.06,1.06,0,0,0,.2.71,1,1,0,0,0,.69.21,5.63,5.63,0,0,0,1.28-.19l2-.51a6.45,6.45,0,0,1,2.06-.27,2.41,2.41,0,0,1,1.47.56,2.89,2.89,0,0,1,.88,1.47,8.84,8.84,0,0,1,.29,2.53,11.18,11.18,0,0,1-.49,3.3,13.16,13.16,0,0,1-1.39,3.06,13.52,13.52,0,0,1-2.1,2.66,13.3,13.3,0,0,1-2.66,2,6.57,6.57,0,0,1-2.66.94,3.56,3.56,0,0,1-2.07-.38,3.28,3.28,0,0,1-1.37-1.41,4.71,4.71,0,0,1-.51-2.18,1.37,1.37,0,0,1,.13-.59.91.91,0,0,1,.32-.4l2.81-1.62a.86.86,0,0,1,.47-.16.67.67,0,0,1,.35.15l.26.28a1.28,1.28,0,0,0,.46.34,1.45,1.45,0,0,0,.73.13,2.63,2.63,0,0,0,1.08-.4,7.63,7.63,0,0,0,1.9-1.48,2.59,2.59,0,0,0,.77-1.81.72.72,0,0,0-.28-.66,1.38,1.38,0,0,0-.84-.13,8,8,0,0,0-1.43.28c-.58.16-1.26.33-2.05.52-1.48.37-2.55.18-3.23-.56s-1-2.07-1-4a11.16,11.16,0,0,1,.41-3,13.85,13.85,0,0,1,1.22-3,13.66,13.66,0,0,1,1.92-2.68A10.5,10.5,0,0,1,243.08,83.09Z" style="fill:#fafafa"></path><path d="M264.11,71.28a.32.32,0,0,1,.41,0,.72.72,0,0,1,.17.53V93.2a1.73,1.73,0,0,1-.17.73,1.06,1.06,0,0,1-.41.5l-2.81,1.63a.31.31,0,0,1-.41,0,.69.69,0,0,1-.17-.53V87.39L256,90.15v8.1a1.61,1.61,0,0,1-.18.73,1.06,1.06,0,0,1-.41.5l-2.81,1.63a.33.33,0,0,1-.41,0,.7.7,0,0,1-.17-.54V79.18a1.77,1.77,0,0,1,.17-.73,1.12,1.12,0,0,1,.41-.5l2.81-1.62a.31.31,0,0,1,.41,0,.71.71,0,0,1,.18.53v8l4.77-2.76v-8a1.65,1.65,0,0,1,.17-.73,1.06,1.06,0,0,1,.41-.5Z" style="fill:#fafafa"></path></g><g id="freepik--Timer--inject-34"><path d="M252.48,116a1.49,1.49,0,0,0-1.54.14l-41.57,24a4.77,4.77,0,0,0-2.16,3.75v18.46a1.54,1.54,0,0,0,.64,1.41l4.06,2.34a1.52,1.52,0,0,0,1.53-.15l41.57-24a4.78,4.78,0,0,0,2.17-3.75V119.7a1.51,1.51,0,0,0-.65-1.41Z" style="fill:#455a64"></path><path d="M211.27,164.68a1.63,1.63,0,0,0,.5,1.32l-3.93-2.27a1.5,1.5,0,0,1-.64-1.4V143.87a4.34,4.34,0,0,1,.64-2.13l4.06,2.34a4.47,4.47,0,0,0-.63,2.14Z" style="fill:#263238"></path><path d="M252.48,116l3.93,2.27a1.64,1.64,0,0,0-1.41.22l-41.57,24a4.57,4.57,0,0,0-1.53,1.61l-4.06-2.34a4.37,4.37,0,0,1,1.54-1.62l41.56-24A1.54,1.54,0,0,1,252.48,116Z" style="fill:#37474f"></path><path d="M218,145a2.71,2.71,0,0,1,1.13-.4,1.13,1.13,0,0,1,.77.15,1.45,1.45,0,0,1,.47.56,2.27,2.27,0,0,1,.25.7,3.91,3.91,0,0,1,.06.68v5.74a5.36,5.36,0,0,1-.06.75,5.64,5.64,0,0,1-.25,1,6,6,0,0,1-.47,1.1,5.19,5.19,0,0,1-1.9,1.95,3.21,3.21,0,0,1-.84.35,1.35,1.35,0,0,1-.65,0,1,1,0,0,1-.49-.21,1.41,1.41,0,0,1-.34-.39,3.14,3.14,0,0,1-.21-.49,4.06,4.06,0,0,1-.11-.52,3.83,3.83,0,0,1,0-.47v-5.74a4.63,4.63,0,0,1,0-.51c0-.19.06-.4.11-.65s.13-.49.21-.74a8.07,8.07,0,0,1,.34-.78,4.77,4.77,0,0,1,.49-.77,5.28,5.28,0,0,1,.65-.72A5,5,0,0,1,218,145Zm0,11.58a2.71,2.71,0,0,0,.61-.51,2.88,2.88,0,0,0,.42-.63,4.55,4.55,0,0,0,.25-.68,3.63,3.63,0,0,0,.13-.64,3.4,3.4,0,0,0,0-.53V147a2.63,2.63,0,0,0,0-.49,1.88,1.88,0,0,0-.13-.49,1.11,1.11,0,0,0-.26-.39.6.6,0,0,0-.41-.14,1.25,1.25,0,0,0-.61.19,2.09,2.09,0,0,0-.6.51,2.61,2.61,0,0,0-.42.62,3.94,3.94,0,0,0-.25.68,3.73,3.73,0,0,0-.13.65,3.23,3.23,0,0,0,0,.53v6.63a2.63,2.63,0,0,0,0,.49,1.69,1.69,0,0,0,.13.49,1.05,1.05,0,0,0,.25.39.65.65,0,0,0,.42.15A1.19,1.19,0,0,0,218,156.62Z" style="fill:#FBBF24"></path><path d="M222,143.41l2.07-1.82v12l-1.24.72V144.12a.8.8,0,0,0-.09-.45c-.06-.07-.14-.08-.25,0L222,144Z" style="fill:#FBBF24"></path><path d="M226.69,143.21v1.27a1,1,0,0,1,0,.2.27.27,0,0,1-.08.13.7.7,0,0,1-.22.17l-.61.36c-.14.08-.22.1-.26.08s0-.1,0-.22v-1.4s0-.06,0-.11a.31.31,0,0,1,.1-.13,1.06,1.06,0,0,1,.18-.13l.61-.35c.15-.08.23-.11.27-.08S226.69,143.1,226.69,143.21Zm0,7.6v1.27a1,1,0,0,1,0,.2.27.27,0,0,1-.08.13.7.7,0,0,1-.22.17l-.61.36c-.14.08-.22.1-.26.08s0-.1,0-.22v-1.4s0-.06,0-.11a.38.38,0,0,1,.1-.13,1.06,1.06,0,0,1,.18-.13l.61-.35c.15-.08.23-.11.27-.08S226.69,150.7,226.69,150.81Z" style="fill:#FBBF24"></path><path d="M230.81,137.67a2.74,2.74,0,0,1,1.13-.41,1.14,1.14,0,0,1,.77.16,1.5,1.5,0,0,1,.47.55,2.37,2.37,0,0,1,.25.7,4,4,0,0,1,.06.68v5.74a5.14,5.14,0,0,1-.06.75,5.51,5.51,0,0,1-.25,1,6.28,6.28,0,0,1-.47,1.1,5,5,0,0,1-.77,1,4.92,4.92,0,0,1-1.13.9,3.21,3.21,0,0,1-.84.35,1.49,1.49,0,0,1-.65,0,1.2,1.2,0,0,1-.49-.21,1.41,1.41,0,0,1-.34-.39,3.26,3.26,0,0,1-.21-.5,3.61,3.61,0,0,1-.11-.51,3.83,3.83,0,0,1,0-.47v-5.75a4.6,4.6,0,0,1,0-.5c0-.19.06-.4.11-.65s.13-.49.21-.74a6.38,6.38,0,0,1,.34-.78,5.58,5.58,0,0,1,.49-.77,5.35,5.35,0,0,1,.65-.72A4.5,4.5,0,0,1,230.81,137.67Zm0,11.57a2.43,2.43,0,0,0,.61-.5,2.88,2.88,0,0,0,.42-.63,4.55,4.55,0,0,0,.25-.68,3.82,3.82,0,0,0,.13-.64,3.44,3.44,0,0,0,0-.54v-6.63a2.63,2.63,0,0,0,0-.49,1.78,1.78,0,0,0-.13-.49,1.11,1.11,0,0,0-.26-.39.6.6,0,0,0-.41-.15,1.28,1.28,0,0,0-.61.2,2.22,2.22,0,0,0-.6.5,2.88,2.88,0,0,0-.42.63,3.66,3.66,0,0,0-.25.68,3.82,3.82,0,0,0-.13.64c0,.19,0,.37,0,.53v6.64a3.89,3.89,0,0,0,0,.49,2.38,2.38,0,0,0,.13.49,1.14,1.14,0,0,0,.25.39.64.64,0,0,0,.42.14A1.1,1.1,0,0,0,230.81,149.24Z" style="fill:#FBBF24"></path><path d="M234.73,136l2.06-1.82v12.05l-1.24.71V136.75a.8.8,0,0,0-.09-.45c-.06-.07-.14-.08-.25,0s-.19.14-.48.39Z" style="fill:#FBBF24"></path><path d="M239.46,135.84v1.27a.92.92,0,0,1,0,.19.29.29,0,0,1-.08.14.7.7,0,0,1-.22.17l-.61.35c-.14.08-.22.11-.26.09s-.05-.1-.05-.23v-1.39a1,1,0,0,1,0-.11.31.31,0,0,1,.1-.13.7.7,0,0,1,.18-.13l.61-.36c.15-.08.23-.1.27-.08S239.46,135.72,239.46,135.84Zm0,7.6v1.27a.92.92,0,0,1,0,.19.29.29,0,0,1-.08.14.88.88,0,0,1-.22.17l-.61.35c-.14.08-.22.11-.26.09s-.05-.1-.05-.23V144a1,1,0,0,1,0-.11.31.31,0,0,1,.1-.13.7.7,0,0,1,.18-.13l.61-.36c.15-.08.23-.1.27-.08S239.46,143.32,239.46,143.44Z" style="fill:#FBBF24"></path><path d="M243.58,130.29a2.86,2.86,0,0,1,1.13-.4,1.07,1.07,0,0,1,.77.16,1.42,1.42,0,0,1,.47.55,2.27,2.27,0,0,1,.25.7,4,4,0,0,1,.06.68v5.74a5.36,5.36,0,0,1-.06.75,5.51,5.51,0,0,1-.25,1,6.18,6.18,0,0,1-.47,1.09,5,5,0,0,1-.77,1.06,4.88,4.88,0,0,1-1.13.89,3.26,3.26,0,0,1-.84.36,1.66,1.66,0,0,1-.65,0,1.21,1.21,0,0,1-.49-.22,1.52,1.52,0,0,1-.34-.38,3.26,3.26,0,0,1-.21-.5,3.46,3.46,0,0,1-.11-.52,3.71,3.71,0,0,1,0-.47v-5.74a4.92,4.92,0,0,1,0-.51c0-.18.06-.4.11-.64s.13-.49.21-.74a5.92,5.92,0,0,1,.83-1.56,5.3,5.3,0,0,1,.65-.71A5.06,5.06,0,0,1,243.58,130.29Zm0,11.58a2.13,2.13,0,0,0,.61-.51,2.47,2.47,0,0,0,.42-.63,3.42,3.42,0,0,0,.25-.68,3.63,3.63,0,0,0,.13-.64,3.23,3.23,0,0,0,0-.53v-6.63a2.74,2.74,0,0,0,0-.5,1.72,1.72,0,0,0-.13-.48,1,1,0,0,0-.26-.39.56.56,0,0,0-.41-.15,1.25,1.25,0,0,0-.61.19,2.26,2.26,0,0,0-.6.51,2.66,2.66,0,0,0-.42.63,4.54,4.54,0,0,0-.38,1.32,5,5,0,0,0,0,.53v6.63a4.07,4.07,0,0,0,0,.5,2.38,2.38,0,0,0,.13.49,1.25,1.25,0,0,0,.25.39.64.64,0,0,0,.42.14A1.19,1.19,0,0,0,243.58,141.87Z" style="fill:#FBBF24"></path><path d="M250.54,138.49a3,3,0,0,1-1,.38,1.18,1.18,0,0,1-.71,0,1.48,1.48,0,0,1-.47-.35,1.53,1.53,0,0,1-.3-.55,3.76,3.76,0,0,1-.15-.6,5.46,5.46,0,0,1,0-.56V131a4.92,4.92,0,0,1,0-.51c0-.18.07-.4.13-.65a7.08,7.08,0,0,1,.22-.75,7.41,7.41,0,0,1,.35-.79,6.36,6.36,0,0,1,.49-.78,4.84,4.84,0,0,1,.66-.72,5,5,0,0,1,.85-.62l.2-.12a4.11,4.11,0,0,1,1.07-.38,3,3,0,0,1,1-.11l-.21.85-.93.07a2.11,2.11,0,0,0-.93.23,2.49,2.49,0,0,0-.75.67,3.29,3.29,0,0,0-.52.87,5.61,5.61,0,0,0-.28.85,3.44,3.44,0,0,0-.09.72V132l1.26-1.5a7.73,7.73,0,0,1,.64-.64,4.54,4.54,0,0,1,.52-.39,1,1,0,0,1,1.19-.05,1.45,1.45,0,0,1,.51,1.28V134a4.13,4.13,0,0,1-.05.58,6.76,6.76,0,0,1-.17.73,4.28,4.28,0,0,1-.32.83,7.31,7.31,0,0,1-.5.83,4.46,4.46,0,0,1-.72.81A5.76,5.76,0,0,1,250.54,138.49Zm-1.39-5.94v3.95a3.91,3.91,0,0,0,0,.49,1.91,1.91,0,0,0,.12.5,1,1,0,0,0,.24.4.52.52,0,0,0,.4.15,1.13,1.13,0,0,0,.6-.18,2.33,2.33,0,0,0,.57-.49,3.14,3.14,0,0,0,.42-.63,4.26,4.26,0,0,0,.28-.7,4,4,0,0,0,.17-.66,3.74,3.74,0,0,0,.05-.54v-3.08a1.85,1.85,0,0,0-.26-1.11.47.47,0,0,0-.69-.09,2.15,2.15,0,0,0-.47.42Z" style="fill:#FBBF24"></path></g></g></g><g id="freepik--Character--inject-34"><g id="freepik--character--inject-34"><g id="freepik--Bottom--inject-34"><path d="M272.52,264.38c-10,2.54-15.09.76-22.88-1.59-1.84,15.63-5.28,38.45-8.4,58.06-6.15-1.34-10.23-.66-15.91.55-2.63.57-6,1.4-8.7,1.77s-6.75,1.33-8.37.67c-2-.83-3.13-2.31-5.47-2.08a6.63,6.63,0,0,0-4.79,2.8c-1.6,2.38-1.44,5.52-2.56,8.16a15.57,15.57,0,0,1-4.31,5.35,14.47,14.47,0,0,0-1.54,1.49,9.53,9.53,0,0,0-1.72,7.32c.32,1.94,1.33,6.48,4.18,5.56a3.72,3.72,0,0,0,1.84-1.51A19.7,19.7,0,0,0,195,348.8a20.92,20.92,0,0,1,1.19-2,35.21,35.21,0,0,1,6.43-6.76c1.12-1,2.24-1.85,3.36-2.8,1-.82,2.51-2.09,3.84-2.15a120.76,120.76,0,0,1,13.43.4c6.92.54,14.31,1.43,18.81,2,9,1.15,12,1.09,15.59-5.19,3.8-6.59,8.28-18.09,11.41-28.54A91,91,0,0,0,272.52,264.38Z" style="fill:#f28f8f"></path><path d="M273.79,275.37c.43,4.9-1.17,19.9-5,32.91l-25.5-.85.81-30.52Z" style="fill:#37474f"></path><path d="M210.45,324.12c0-.89-1.25-1.29-2.2-1a12.5,12.5,0,0,0-1.45.57A5.34,5.34,0,0,0,210.45,324.12Z" style="fill:#FBBF24"></path><g style="opacity:0.30000000000000004"><path d="M210.45,324.12c0-.89-1.25-1.29-2.2-1a12.5,12.5,0,0,0-1.45.57A5.34,5.34,0,0,0,210.45,324.12Z"></path></g><path d="M199.06,344.54c1.66-2,7.27-7.3,9.05-8.35s3.4-.45,2.65-2.33-1.48-4.6-2.67-4.7-3.68,1.34-6.55,4.07a34.92,34.92,0,0,0-5.4,7.48Z" style="fill:#FBBF24"></path><path d="M199.06,344.54c1.66-2,7.27-7.3,9.05-8.35s3.4-.45,2.65-2.33-1.48-4.6-2.67-4.7-3.68,1.34-6.55,4.07a34.92,34.92,0,0,0-5.4,7.48Z" style="opacity:0.1"></path><path d="M190.76,355.39c-.8.28-2.39.32-4.22-2.2a12.34,12.34,0,0,1-1.29-10.93c1.6-4.68,5-6.27,6.42-8.72,1.84-3.13,1.79-6.71,2.25-9.07.55-2.75,2.08-2.78,2.81-2.75s2.67.23,2.67.23Z" style="fill:#ebebeb"></path><path d="M210.45,324.12c-.48-1.32-2-1.09-3-.67s-2.4,1-2.56,2.05,1.89,1.65,2.11,2.78-1.52,2.59-3.63,4.58-6.66,7.33-6.53,8,2.16,2.65,2.2,3.67a19.89,19.89,0,0,0-3.12,5.54c-.58,1.84-1.06,3.33-1.37,4.1s-2.89,1.37-3.94,1.19c-1.73-.3-5.34-3.19-5.12-9.15s3.33-7.27,6.07-9.84,3.49-8.41,3.85-10a7.26,7.26,0,0,1,2.91-4.18,8.41,8.41,0,0,1,4-.78c2.43.07,3.85.52,5.76.22,2.15-.34,3.08,2.37,3.08,2.37S211,324.05,210.45,324.12Z" style="fill:#FBBF24"></path><path d="M191.84,354c-.47-1-1-2.06-1.38-2s-2.67.42-3.52,0-1.18-1.4-1.58-2.33a15.23,15.23,0,0,1-.09-7.06c1-3.32,2.5-4.35,4.76-6.92A12.61,12.61,0,0,0,193.6,328c.6-3.78.83-5.08,2.14-6.19a9,9,0,0,0-1,0,4.09,4.09,0,0,0-1.14,1.72c-.32,1-1,6.74-1.77,8.27a14.79,14.79,0,0,1-3.23,4.27c-1.35,1.48-3.1,2.86-4.06,6.56a13.49,13.49,0,0,0,1.65,10.17c1.68,2.42,2.72,2.66,3.13,2.84a5,5,0,0,0,2.54-.28C192.3,355.11,192.18,354.73,191.84,354Z" style="fill:#455a64"></path><path d="M196.86,339.63c1.89,1.81,2.77,3.49,2.71,4.33a1.73,1.73,0,0,1-.72.93s-.24-1.59-2.71-4.18A1,1,0,0,1,196.86,339.63Z" style="fill:#455a64"></path><path d="M201.51,341.94a7.38,7.38,0,0,0-2.91-4.54,1.11,1.11,0,0,1,.73-1,7.73,7.73,0,0,1,3,4.77S202.09,341.89,201.51,341.94Z" style="fill:#455a64"></path><path d="M204.26,339.34c.24-1.36-1.72-4.12-2.95-5a.92.92,0,0,1,.83-1.05,8.36,8.36,0,0,1,3.17,5.12S205.07,339.37,204.26,339.34Z" style="fill:#455a64"></path><path d="M206.9,337.07a7.77,7.77,0,0,0-2.89-5.33,1.13,1.13,0,0,1,.92-.87,6.77,6.77,0,0,1,3,5.44A1.82,1.82,0,0,1,206.9,337.07Z" style="fill:#455a64"></path><path d="M271,306.72c1,2.39.43,6.83-5.35,11.95s-17.12,7-19.44,2.73,3.29-11.24,9.58-14.42S269,303,271,306.72Z" style="fill:#37474f"></path><path d="M300.61,411a2.68,2.68,0,0,0-.54-.5c-.19-.15-.33-.22-.5-.34-6.15-4.6-8.51-7.76-12.4-14.29-.74-2.22-2-5.41-2.3-8.07-.43-4.35-1.16-10.64-1.7-15.81-1.08-10.35-1.82-20.95-2.47-29.42-1-12.56-1.73-14.47-5.61-23.66-4.31-10.2-9.89-21.72-14.2-31.55,4.36-.29,7.4-3.77,12.56-12.05.19-4-.63-6.09-1.09-10.63a89.71,89.71,0,0,1-14,1.83c-8.85.57-15.45.24-22.16-3.28-1.83,4.21-6.22,10-5.8,20.76.43,11,8.48,22.51,14.5,31.85,4.48,6.94,8.12,13.44,13.79,21.71-.3,6.67,0,11,2.05,17.25,1,3,4.72,10.73,8,19.65,2.24,6.12,4.15,11.36,4.46,12.62.64,2.61,1.14,5,.15,7.89-.44,1.26-1.33,3.05-.37,4.75,1.35,2.39,3.77,2.86,5.68,4.89a35.15,35.15,0,0,1,4.52,5.56,10.22,10.22,0,0,0,7.05,4.66A12.83,12.83,0,0,0,300.27,413a1.65,1.65,0,0,0,.63-.81A1.48,1.48,0,0,0,300.61,411Z" style="fill:#ffa8a7"></path><path d="M230.75,262.82a150.5,150.5,0,0,0-1.07,20c0,9,4.35,17,8.7,24.57s7.83,14,7.83,14-.37-6.44,7.3-12.12c8.25-6.1,16-4.87,17.49-2.56l-8.77-20s8.51-4.32,11.56-11.39c0,0-.34-5.63-1.23-11.22C272.56,264.15,249.55,271.79,230.75,262.82Z" style="fill:#455a64"></path><path d="M261.78,286.66c2.42,5.56,5.8,12,7.56,16.28L265.65,288c3.57-3.78,5.21-5.33,7-10.39C270.4,281.11,267.21,283.08,261.78,286.66Z" style="fill:#263238"></path><path d="M273.74,388.86c-.86.28-.88,1.28-.31,2.12a11.57,11.57,0,0,0,.95,1.25Z" style="fill:#FBBF24"></path><path d="M273.74,388.86c-.86.28-.88,1.28-.31,2.12a11.57,11.57,0,0,0,.95,1.25Z" style="opacity:0.30000000000000004"></path><path d="M294,404.7c-1.68-2-5.83-8.61-6.52-10.59s.21-3.44-1.8-3.08-4.84.59-5.17,1.75.61,3.9,2.76,7.27a35,35,0,0,0,6.36,6.8Z" style="fill:#FBBF24"></path><path d="M294,404.7c-1.68-2-5.83-8.61-6.52-10.59s.21-3.44-1.8-3.08-4.84.59-5.17,1.75.61,3.9,2.76,7.27a35,35,0,0,0,6.36,6.8Z" style="opacity:0.1"></path><path d="M303.16,415c.12.84,0,1.42-2.93,2.49s-7.43,1.05-11.19.12-7-4.36-8.58-6.77-4.77-4.67-6.89-5.85-2.55-1.65-2.38-2.37S272,400,272,400Z" style="fill:#ebebeb"></path><path d="M273.74,388.86c-.68.47-.37,1.78.77,2.88.46.69.74,3.1,1.77,3.47s2-1.54,3.17-1.54,2.27,2,3.84,4.47,6,8,6.66,8,3.05-1.63,4.07-1.47a59.7,59.7,0,0,0,4.88,4.18c2.4,1.77,3.24,2.31,3.94,2.78s.85,2.16.46,3.16-5.94,3.44-11.81,2.07-7.55-3.95-9.57-7.16a16.23,16.23,0,0,0-6.1-5.72,13.15,13.15,0,0,1-4.09-2.93,8.49,8.49,0,0,1,0-4.09c.54-2.4,1.23-4.4.92-6.33a2.48,2.48,0,0,1,.89-2.64A5.54,5.54,0,0,1,273.74,388.86Z" style="fill:#FBBF24"></path><path d="M302.39,412.71c-1.07.27-2.23.56-2.28,1s-.1,2.73-.68,3.49a2.83,2.83,0,0,1-2.3,1.06,27.46,27.46,0,0,1-7.94-.72,14.54,14.54,0,0,1-7.11-4.8c-2.22-2.65-2.62-3.93-5.55-6s-4-2.36-5.34-3.58a5.36,5.36,0,0,0-.24,1,3.59,3.59,0,0,0,1.33,1.14,35.06,35.06,0,0,1,5.48,3.35,38.57,38.57,0,0,1,4,4.71,15,15,0,0,0,7.43,4.82c3.32.85,7.91,1,10.91-.07s3.17-1.7,3.43-2.06a7.25,7.25,0,0,0,.21-3.06C303.55,412.47,303.15,412.51,302.39,412.71Z" style="fill:#455a64"></path><path d="M288.72,405.93c2.16-1.52,4-2.06,4.82-1.84a1.73,1.73,0,0,1,.78.89s-1.62-.07-4.67,1.87A1,1,0,0,1,288.72,405.93Z" style="fill:#455a64"></path><path d="M291.92,401.77a7.49,7.49,0,0,0-5.07,2,1.11,1.11,0,0,1-.87-.92,7.81,7.81,0,0,1,5.31-2S292,401.19,291.92,401.77Z" style="fill:#455a64"></path><path d="M289.87,398.55c-1.3-.5-4.42.9-5.54,1.95a.93.93,0,0,1-.87-1,8.38,8.38,0,0,1,5.69-2.14S290.05,397.75,289.87,398.55Z" style="fill:#455a64"></path><path d="M288.13,395.49a7.79,7.79,0,0,0-5.84,1.83,1.15,1.15,0,0,1-.68-1.08,6.83,6.83,0,0,1,6-1.91A1.81,1.81,0,0,1,288.13,395.49Z" style="fill:#455a64"></path></g><g id="freepik--Top--inject-34"><path d="M305.49,204.26c-1.27,1.34-4,4-12.35,11.25-6.12,5.32-13.09,12.36-15.3,18.89.38-9.17-8.73-23.54-8.73-23.54,2.63-.7,5.27-1.34,7.35-2.82,8.84-6.27,13.63-10.87,16.05-13.67.75-.89,1.13-1.56,1.41-3.82.25-2,2.42-19.65,1.7-27a5.39,5.39,0,0,0-1.73-3.4c-2.59-2.38-3.41-4.49-5.18-7.22-1.39-2.14-2.78-2.87-2.44-3.4a2.9,2.9,0,0,1,3.89-.6,20.6,20.6,0,0,1,3.73,3,26.75,26.75,0,0,0-2.87-8.12c-3.16-5.82-2.76-9,5.56-7.45,5.21.94,10.07,5.33,11.81,17.53.5,3.51.34,8.75.32,13.25-.06,10.24-.1,18.56-.51,26.84C308,197.59,307.89,201.73,305.49,204.26Z" style="fill:#ffa8a7"></path><path d="M235.93,215.33c-1,3.77-5.9,35.82-6.75,62.77,12.28,5.38,37.29,1,44.7-8l.79-13.59c1.88-10.2,2.62-19.2,3.43-23.58.88-4.83.75-16.78-7.1-21.48a33.88,33.88,0,0,0-10.62-1.89c-4.71-.17-13.3-.14-18,.78C240.1,210.8,236.58,213,235.93,215.33Z" style="fill:#FBBF24"></path><path d="M235.93,215.33c-1,3.77-5.9,35.82-6.75,62.77,12.28,5.38,37.29,1,44.7-8l.79-13.59c1.88-10.2,2.62-19.2,3.43-23.58.88-4.83.75-16.78-7.1-21.48a33.88,33.88,0,0,0-10.62-1.89c-4.71-.17-13.3-.14-18,.78C240.1,210.8,236.58,213,235.93,215.33Z" style="fill:#fff;opacity:0.6000000000000001"></path><path d="M245.36,241.89s17.58,1.42,28.52-3.06L272,256.32s-11.55,6.15-28.35,2.16Z" style="fill:#fafafa"></path><path d="M254,249.62c0,.16,0,.34,0,.53l0,.6-.06.6a4,4,0,0,1-.06.54,5.56,5.56,0,0,1-.34,1.35,3,3,0,0,1-.68,1,2.64,2.64,0,0,1-1.12.64,4.11,4.11,0,0,1-1.61.11,4.3,4.3,0,0,1-1.56-.44,2.84,2.84,0,0,1-1-.86,3.13,3.13,0,0,1-.49-1.17,6.36,6.36,0,0,1-.11-1.4c0-.33,0-.7.07-1.11s.08-.78.12-1.1a6.21,6.21,0,0,1,.35-1.35,2.73,2.73,0,0,1,.68-1,2.64,2.64,0,0,1,1.1-.62,4.15,4.15,0,0,1,1.61-.09,4.44,4.44,0,0,1,1.57.41,2.66,2.66,0,0,1,1.48,1.95A5.64,5.64,0,0,1,254,249.62Zm-5.36,1.71a2.74,2.74,0,0,0,.32,1.47,1.53,1.53,0,0,0,1.23.65,1.48,1.48,0,0,0,1.32-.38,2.63,2.63,0,0,0,.57-1.38c0-.32.08-.68.11-1.07s.06-.75.07-1.07a2.62,2.62,0,0,0-.32-1.46,1.53,1.53,0,0,0-1.23-.63,1.51,1.51,0,0,0-1.32.36,2.51,2.51,0,0,0-.56,1.37c-.05.32-.09.68-.12,1.07S248.66,251,248.65,251.33Z"></path><path d="M260.2,249.33a1.87,1.87,0,0,0,.59-.67,1.68,1.68,0,0,0,.19-.59,1.08,1.08,0,0,0-.2-.86,1.2,1.2,0,0,0-1-.27,1.75,1.75,0,0,0-1.11.41,2.6,2.6,0,0,0-.59.91.59.59,0,0,1-.2.26.4.4,0,0,1-.24.09l-1,0a.32.32,0,0,1-.25-.08.25.25,0,0,1-.06-.24,3.37,3.37,0,0,1,.45-1.1,4,4,0,0,1,.82-.92,4.41,4.41,0,0,1,1.11-.66,3.87,3.87,0,0,1,1.3-.31,3.38,3.38,0,0,1,1.4.14,2.26,2.26,0,0,1,.9.58,2,2,0,0,1,.46.86,2.5,2.5,0,0,1,.06,1,5.49,5.49,0,0,1-.12.61,2.37,2.37,0,0,1-.27.59,3.75,3.75,0,0,1-.5.64,7.24,7.24,0,0,1-.83.74c-1.09.95-1.63,1.42-2.72,2.34,1.46-.1,2.19-.16,3.65-.31a.28.28,0,0,1,.24.08.26.26,0,0,1,.07.23c0,.36-.07.54-.12.9a.45.45,0,0,1-.14.25.43.43,0,0,1-.27.13c-2.46.25-3.68.34-6.12.45a.32.32,0,0,1-.24-.09.3.3,0,0,1-.07-.24l.11-.78a.71.71,0,0,1,.18-.38,2.2,2.2,0,0,1,.25-.23C257.59,251.47,258.46,250.76,260.2,249.33Z"></path><path d="M271.59,244a.23.23,0,0,1,.23.05.24.24,0,0,1,.08.22c0,.36-.08.54-.13.9a.48.48,0,0,1-.13.28l-.22.25c-.88.93-1.33,1.39-2.21,2.3a4.28,4.28,0,0,1,1.05.09,1.9,1.9,0,0,1,.75.38,1.52,1.52,0,0,1,.43.67,2.29,2.29,0,0,1,.05,1,3.19,3.19,0,0,1-.44,1.23,4.36,4.36,0,0,1-.87,1A5,5,0,0,1,269,253a6.25,6.25,0,0,1-1.45.43,5.24,5.24,0,0,1-1.57,0,2.92,2.92,0,0,1-1.07-.38,1.64,1.64,0,0,1-.59-.67,1.67,1.67,0,0,1-.16-.79.35.35,0,0,1,.13-.26.57.57,0,0,1,.27-.13l1.05-.13a.23.23,0,0,1,.2.05.71.71,0,0,1,.15.21.83.83,0,0,0,.17.26,1,1,0,0,0,.32.19,1.74,1.74,0,0,0,.52.09,4.07,4.07,0,0,0,.8-.06,3.16,3.16,0,0,0,1.35-.53,1.47,1.47,0,0,0,.62-1,.61.61,0,0,0-.39-.74,2.89,2.89,0,0,0-1.27,0l-1.1.17a.26.26,0,0,1-.23-.06.25.25,0,0,1-.08-.23c.05-.36.08-.54.13-.9a.48.48,0,0,1,.13-.28l.22-.24c.85-.85,1.27-1.29,2.11-2.16-1.46.25-2.19.35-3.65.54a.26.26,0,0,1-.24-.07.24.24,0,0,1-.07-.22c.05-.37.08-.55.13-.91a.41.41,0,0,1,.13-.25.5.5,0,0,1,.27-.14C268.1,244.56,269.26,244.38,271.59,244Z"></path><path d="M250.7,172.17a6.93,6.93,0,0,0-5.29,3.77c-1.11,2.21-.37,6.68.89,12.57a54.11,54.11,0,0,0,3.29,11.1,4.47,4.47,0,0,0,2.52,2.16l.06-6.94-.1-4.85s4.32,1.46,5.61-5.57a60.29,60.29,0,0,0,.81-9.35Z" style="fill:#263238"></path><path d="M255.8,179.9a13,13,0,1,0,13.33-12.58A13,13,0,0,0,255.8,179.9Z" style="fill:#263238"></path><path d="M253.76,189.66a1.14,1.14,0,0,1-.66.05,1.93,1.93,0,0,1-1.23-1.23,16.39,16.39,0,0,0-.62-1.7c-.52-1-2.08-1.38-3.15-1.38a4.49,4.49,0,0,0-3.51,1.9c-2.29,3,.09,8.09,2.45,9.27,3.44,1.74,5.13-1.74,5.13-1.74L252,210.52s.83,3,6.75,5.27c4.63,1.79,11.66-.73,7.46-5.32l0-5.2a19.25,19.25,0,0,0,7.21.28c2.35-.48,3.52-2.06,4.59-5.71A45,45,0,0,0,278,175.3c-2.48-2.05-6.51-1.57-9.4-1a33.21,33.21,0,0,0-6.3,2c-.36.15-1.4.42-1.61.75s0,.8,0,1.14a4.42,4.42,0,0,1-.95,2.62,5.67,5.67,0,0,1-4,1.59,19.54,19.54,0,0,1-.78,5.36C254.83,188.5,254.4,189.45,253.76,189.66Z" style="fill:#ffa8a7"></path><path d="M281,166.81a.58.58,0,0,0-.45-.37.76.76,0,0,0-.45.17,20,20,0,0,1-2.89,1.82,10.24,10.24,0,0,0,.17-3.86c-.12-.79-.28-2.62-1.25-2.84-.57-.14-1.09.33-1.53.72-4,3.52-9,1.67-13.73,1.67-3.93,0-8.71,1.45-10.61,5.2-.86,1.72-1.06,3.56.5,4.81,1.34,1.08,5.81,2.17,7.41,2.7,4.25,1.4,15.19,5,21.2-2.11a11.4,11.4,0,0,0,2-4.68,5.73,5.73,0,0,0-.37-3.18Z" style="fill:#263238"></path><path d="M266.28,205.27s-5.86-1.24-8.18-2.85a11.18,11.18,0,0,1-3.61-4.06s.5,3.34,2.1,5.14c2.82,3.16,9.67,4.12,9.67,4.12Z" style="fill:#f28f8f"></path><path d="M265.85,187.89a1.43,1.43,0,1,1-1.38-1.53A1.47,1.47,0,0,1,265.85,187.89Z" style="fill:#263238"></path><path d="M263.93,182.94l-3,1.77a1.83,1.83,0,0,1,.64-2.45A1.7,1.7,0,0,1,263.93,182.94Z" style="fill:#263238"></path><path d="M265.45,196.3l6,1.84a3.31,3.31,0,0,1-4.05,2.14A3.08,3.08,0,0,1,265.45,196.3Z" style="fill:#b16668"></path><path d="M269.45,200.2a3.43,3.43,0,0,0-3.56-2.64,5.58,5.58,0,0,0-.59.1,3,3,0,0,0,2.13,2.62A3.1,3.1,0,0,0,269.45,200.2Z" style="fill:#f28f8f"></path><path d="M277.93,183.67l-3.11-1.61a1.68,1.68,0,0,1,2.31-.8A1.84,1.84,0,0,1,277.93,183.67Z" style="fill:#263238"></path><path d="M276.8,187.14a1.43,1.43,0,1,1-1.39-1.53A1.47,1.47,0,0,1,276.8,187.14Z" style="fill:#263238"></path><polygon points="270.25 194.72 274.76 193.56 269.63 186.39 270.25 194.72" style="fill:#f28f8f"></polygon><path d="M252.64,277.05l-5.11.57,3.62-3.89c-19.11,7.24-48.09,1.74-81.75,7.93-20.52,3.77-45.5,18.19-52.83,26.3v11.61c7.43-9,36.23-26.92,53.47-30.37,35.63-7.15,64-.71,80.11-6.34l2.8-1.2-4.92-.58Z" style="fill:#FBBF24"></path><path d="M252.64,277.05l-5.11.57,3.62-3.89c-19.11,7.24-48.09,1.74-81.75,7.93-20.52,3.77-45.5,18.19-52.83,26.3v11.61c7.43-9,36.23-26.92,53.47-30.37,35.63-7.15,64-.71,80.11-6.34l2.8-1.2-4.92-.58Z" style="opacity:0.2"></path><path d="M220.71,287.36c-1.49-2.79-2.44-3.64-3.23-6.29a12,12,0,0,0,2.76,1.85c1.21.49,2.78.35,3.09-.74s-1.53-1.57-2.3-2.73a36,36,0,0,0-4.18-5.55,4,4,0,0,1-1.52-2.76c-.56-7.76-.25-17.11-.55-25.89,5.57-3.51,17.13-9.68,21.78-12.54,3.62-2.23,6.55-8.06,7.34-13.9.2-1.48.4-6.6-.46-8.63-3-.45-7.05.59-10.38,2.88-2,1.38-5.85,4.35-14.62,10.93-5,3.72-11.95,8.58-17.2,14.86-2.34,2.81,1.59,26.25,2.42,31.53.45,2.86,1.26,7.26,2.22,11,1.62,6.31,5.7,11.33,10.41,12.07C223.81,294.65,222.72,291.13,220.71,287.36Z" style="fill:#ffa8a7"></path><path d="M304.81,237.23c-9,16.44-20.56,29.17-43.72,33.57l5.65,1.08L262,275l4.82.65-3.3,3.25c25.38-5.57,37.54-19.65,46.84-35.92,6.59-11.52,10.86-29.69,18.29-43.16,5.87-10.63,11-16.31,15.82-19.64v-9.45c-7.59,4.38-14.89,12.56-20.66,23.13C315.36,209.42,309.45,228.74,304.81,237.23Z" style="fill:#FBBF24"></path><path d="M304.81,237.23c-9,16.44-20.56,29.17-43.72,33.57l5.65,1.08L262,275l4.82.65-3.3,3.25c25.38-5.57,37.54-19.65,46.84-35.92,6.59-11.52,10.86-29.69,18.29-43.16,5.87-10.63,11-16.31,15.82-19.64v-9.45c-7.59,4.38-14.89,12.56-20.66,23.13C315.36,209.42,309.45,228.74,304.81,237.23Z" style="opacity:0.2"></path></g></g></g><g id="freepik--Confetti--inject-34"><g id="freepik--confetti--inject-34"><path d="M396.51,133.39s-4.15-2.5-4.35-7l3.07-2.47s-.42,2.76,3.15,6.71Z" style="fill:#FBBF24"></path><path d="M434.15,98.19s-3.91-2.86-3.72-7.34l3.27-2.19s-.66,2.71,2.55,7Z" style="fill:#FBBF24"></path><path d="M458,253.51s-3.91-2.86-3.71-7.35l3.27-2.18s-.66,2.71,2.55,7Z" style="fill:#FBBF24"></path><path d="M433.09,45.42s-1.58-4.58,1.14-8.15l3.93.07s-2.09,1.85-1.88,7.17Z" style="fill:#FBBF24"></path><path d="M464.41,131.66s2.17,4.33-.05,8.23l-3.91.46s1.83-2.11.91-7.36Z" style="fill:#FBBF24"></path><path d="M94.76,116.12s2.75-4.5.68-8.93l-4.21-.84s1.8,2.45.34,8.07Z" style="fill:#FBBF24"></path><path d="M214.37,34s-.06,4.85,3.64,7.38l3.72-1.31s-2.57-1.1-4-6.21Z" style="fill:#FBBF24"></path><path d="M37.44,172s4.24-2.35,4.6-6.82l-3-2.58s.32,2.77-3.4,6.58Z" style="fill:#FBBF24"></path><path d="M57.23,211.85S53,209.5,52.64,205l3-2.58s-.32,2.77,3.4,6.58Z" style="fill:#FBBF24"></path><path d="M63.88,202.07s-1.82-4.49.71-8.2l3.93-.13s-2,1.95-1.5,7.25Z" style="fill:#FBBF24"></path><path d="M374.78,33.16s-.27,4.83,3.32,7.52l3.77-1.14s-2.52-1.21-3.77-6.38Z" style="fill:#FBBF24"></path><path d="M472.68,67.1s2.19,4.31,0,8.22l-3.9.48s1.81-2.12.86-7.36Z" style="fill:#FBBF24"></path><path d="M408.68,78s-3.55-3.29-2.84-7.72l3.5-1.79s-1,2.61,1.73,7.2Z" style="fill:#FBBF24"></path><path d="M428.42,155.37s2.11,4.36-.16,8.23l-3.92.4s1.86-2.09,1-7.35Z" style="fill:#FBBF24"></path><path d="M455.08,197.79s-1.41-4.64,1.45-8.1l3.92.21s-2.72,1.91-2.71,7.24Z" style="fill:#FBBF24"></path><path d="M450.46,210.34s-4.16-2.47-4.39-7l3.05-2.48a12.46,12.46,0,0,0,2.87,7.17Z" style="fill:#FBBF24"></path><path d="M198.13,57.8s2.1,4.36-.19,8.22l-3.92.39s1.87-2.08,1-7.34Z" style="fill:#FBBF24"></path><path d="M45.09,121.37s3.71-3.11,3.22-7.57l-3.41-2s.84,2.66-2.09,7.11Z" style="fill:#FBBF24"></path><path d="M48.5,254s1.06,6,6.22,8.22L59,259.72s-3.42-.75-6.43-6.7Z" style="fill:#FBBF24"></path><path d="M81.66,148.56s-.22,4.84,3.4,7.49l3.76-1.18s-3.11-1.18-4.41-6.34Z" style="fill:#FBBF24"></path><g style="opacity:0.25"><path d="M374.78,33.16s-.27,4.83,3.32,7.52l3.77-1.14s-2.52-1.21-3.77-6.38Z"></path><path d="M472.68,67.1s2.19,4.31,0,8.22l-3.9.48s1.81-2.12.86-7.36Z"></path><path d="M408.68,78s-3.55-3.29-2.84-7.72l3.5-1.79s-1,2.61,1.73,7.2Z"></path><path d="M428.42,155.37s2.11,4.36-.16,8.23l-3.92.4s1.86-2.09,1-7.35Z"></path><path d="M455.08,197.79s-1.41-4.64,1.45-8.1l3.92.21s-2.72,1.91-2.71,7.24Z"></path><path d="M450.46,210.34s-4.16-2.47-4.39-7l3.05-2.48a12.46,12.46,0,0,0,2.87,7.17Z"></path><path d="M198.13,57.8s2.1,4.36-.19,8.22l-3.92.39s1.87-2.08,1-7.34Z"></path><path d="M45.09,121.37s3.71-3.11,3.22-7.57l-3.41-2s.84,2.66-2.09,7.11Z"></path><path d="M48.5,254s1.06,6,6.22,8.22L59,259.72s-3.42-.75-6.43-6.7Z"></path><path d="M81.66,148.56s-.22,4.84,3.4,7.49l3.76-1.18s-3.11-1.18-4.41-6.34Z"></path></g></g></g></svg>